<svg height="512pt" viewBox="-106 0 512 512" width="512pt" xmlns="http://www.w3.org/2000/svg"><path d="m45 62c-24.707031 0-44.828125 20.019531-45 44.6875v215.636719c.046875 56.859375 22.015625 110.558593 60 150.75v23.925781c0 8.285156 6.714844 15 15 15h150c8.285156 0 15-6.714844 15-15v-23.925781c38.371094-40.601563 60-94.503907 60-150.925781v-35.148438c0-19.554688-12.539062-36.226562-30-42.421875v-199.578125c0-24.8125-20.1875-45-45-45s-45 20.1875-45 45v79.570312c-4.691406-1.664062-9.742188-2.570312-15-2.570312-20.722656 0-38.210938 14.085938-43.414062 33.179688-5.136719-2.042969-10.730469-3.179688-16.585938-3.179688-5.257812 0-10.304688.914062-15 2.578125v-47.578125c0-24.8125-20.1875-45-45-45zm225 260.148438c0 50.707031-19.746094 98.382812-55.605469 134.242187-2.855469 2.855469-4.394531 6.785156-4.394531 10.613281v14.996094h-120v-15c0-.015625-.003906-.027344-.003906-.042969-.011719-3.835937-1.554688-7.730469-4.390625-10.566406-35.859375-35.859375-55.605469-83.53125-55.605469-134.242187v-215.148438c0-8.269531 6.730469-15 15-15s15 6.730469 15 15v150c0 24.8125 20.1875 45 45 45 9.25 0 17.855469-2.808594 25.015625-7.613281 8.675781 15.023437 22.40625 26.785156 38.855469 32.917969-11.738282 13.242187-18.871094 30.652343-18.871094 49.695312v30c0 8.285156 6.714844 15 15 15s15-6.714844 15-15v-30c0-24.8125 20.1875-45 45-45 8.285156 0 15-6.714844 15-15s-6.714844-15-15-15h-30c-19.558594 0-36.238281-12.539062-42.429688-30h102.429688c8.269531 0 15 6.730469 15 15zm-45-292.148438c8.269531 0 15 6.730469 15 15v197h-30v-197c0-8.269531 6.730469-15 15-15zm-75 137c0-8.269531 6.730469-15 15-15s15 6.730469 15 15v75h-30c0-34.933594 0-42.601562 0-75zm-45 15c8.269531 0 15 6.730469 15 15v60c0 8.269531-6.730469 15-15 15s-15-6.730469-15-15v-60c0-8.269531 6.730469-15 15-15zm0 0"/></svg>